<svg xmlns="http://www.w3.org/2000/svg" viewBox="0 0 500 500">
  <title>Untitled-2</title>
  <path d="M444.23,281H55.77A29.86,29.86,0,0,1,26,251.23v-2.46A29.86,29.86,0,0,1,55.77,219H444.23A29.86,29.86,0,0,1,474,248.77v2.46A29.86,29.86,0,0,1,444.23,281Z"/>
  <path d="M444.23,121H55.77A29.86,29.86,0,0,1,26,91.23V88.77A29.86,29.86,0,0,1,55.77,59H444.23A29.86,29.86,0,0,1,474,88.77v2.46A29.86,29.86,0,0,1,444.23,121Z"/>
  <path d="M444.23,441H55.77A29.86,29.86,0,0,1,26,411.23v-2.46A29.86,29.86,0,0,1,55.77,379H444.23A29.86,29.86,0,0,1,474,408.77v2.46A29.86,29.86,0,0,1,444.23,441Z"/>
</svg>
