<?xml version="1.0" standalone="no"?>
<!DOCTYPE svg PUBLIC "-//W3C//DTD SVG 20010904//EN"
 "http://www.w3.org/TR/2001/REC-SVG-20010904/DTD/svg10.dtd">
<svg version="1.0" xmlns="http://www.w3.org/2000/svg"
 width="349.000000pt" height="349.000000pt" viewBox="0 0 349.000000 349.000000"
 preserveAspectRatio="xMidYMid meet">
<metadata>
Created by potrace 1.11, written by Peter Selinger 2001-2013
</metadata>
<g transform="translate(0.000000,349.000000) scale(0.100000,-0.100000)"
fill="#000000" stroke="none">
<path d="M1014 2245 l-29 -35 -40 14 c-108 40 -230 -7 -280 -107 -42 -85 -29
-185 32 -249 l26 -27 -27 -42 c-36 -54 -23 -64 19 -16 33 38 34 39 71 27 46
-15 129 -15 169 0 140 53 186 226 93 344 -33 42 -34 36 10 104 24 38 -10 28
-44 -13z m-79 -57 c14 -6 25 -14 25 -18 0 -4 -22 -36 -48 -71 -26 -35 -72 -99
-102 -141 -30 -43 -59 -78 -65 -78 -17 1 -44 45 -56 94 -14 55 -1 115 34 158
46 57 150 85 212 56z m89 -72 c17 -22 21 -42 21 -100 0 -65 -3 -77 -29 -110
-33 -44 -83 -68 -141 -70 -49 0 -95 11 -95 24 0 18 203 291 213 287 6 -2 20
-16 31 -31z"/>
<path d="M166 2218 c-3 -13 -6 -112 -6 -220 l0 -198 25 0 25 0 2 174 3 175
138 -175 c94 -117 145 -174 158 -174 19 0 19 8 17 217 -3 198 -5 218 -20 221
-17 3 -18 -10 -18 -172 0 -97 -4 -176 -9 -176 -5 0 -21 17 -37 38 -89 119
-250 312 -260 312 -6 0 -14 -10 -18 -22z"/>
<path d="M1206 2218 c-3 -13 -6 -112 -6 -220 l0 -198 25 0 c24 0 25 2 25 70
l0 70 78 0 77 -1 48 -69 c38 -56 53 -70 74 -70 19 0 23 3 16 13 -31 39 -93
127 -93 131 0 2 15 13 34 24 42 25 72 94 62 146 -16 86 -97 126 -255 126 -73
0 -79 -2 -85 -22z m197 -24 c57 -10 97 -52 97 -104 0 -83 -40 -111 -164 -113
l-81 -2 -3 113 -3 112 58 0 c32 0 75 -3 96 -6z"/>
<path d="M1673 2233 c-10 -4 -13 -56 -13 -219 l0 -214 25 0 25 0 0 100 0 100
135 0 135 0 0 -100 0 -100 25 0 25 0 -2 218 c-3 185 -5 217 -18 217 -25 1 -30
-16 -30 -107 l0 -88 -135 0 -135 0 0 94 c0 94 -6 110 -37 99z"/>
<path d="M2301 2227 c-9 -12 -191 -412 -191 -422 0 -3 9 -5 20 -5 15 0 27 14
44 54 17 38 31 55 47 59 36 8 192 9 213 1 9 -4 28 -31 41 -60 18 -40 29 -54
44 -54 12 0 21 3 21 6 0 11 -182 408 -191 418 -13 15 -37 16 -48 3z m81 -165
l47 -107 -101 -3 c-55 -1 -102 -1 -105 1 -2 3 13 40 33 83 20 44 43 94 51 113
8 18 17 30 21 27 3 -4 27 -55 54 -114z"/>
<path d="M2540 2228 c0 -5 42 -103 93 -218 88 -200 93 -210 120 -210 15 0 27
4 27 10 0 5 41 100 90 212 50 111 90 205 90 209 0 4 -10 5 -21 2 -22 -6 -46
-52 -140 -270 -24 -57 -46 -103 -49 -103 -3 0 -42 84 -87 187 -67 153 -85 187
-102 188 -12 1 -21 -2 -21 -7z"/>
<path d="M3037 2234 c-4 -4 -7 -103 -7 -221 l0 -213 156 0 c143 0 155 1 152
18 -3 15 -17 17 -113 19 -61 1 -119 2 -130 2 -19 1 -20 7 -17 81 l4 80 109 0
c102 0 109 1 109 20 0 19 -7 20 -110 20 l-110 0 0 80 0 80 126 0 c114 0 125 2
122 18 -3 15 -19 17 -144 20 -77 1 -143 -1 -147 -4z"/>
<path d="M1530 1425 c0 -8 9 -15 20 -15 11 0 20 7 20 15 0 8 -9 15 -20 15 -11
0 -20 -7 -20 -15z"/>
<path d="M1107 1423 c-4 -3 -7 -71 -7 -150 0 -118 3 -143 15 -143 10 0 15 16
17 63 l3 62 60 2 c33 1 68 2 78 2 9 1 17 6 17 11 0 6 -33 10 -80 10 l-80 0 0
60 0 60 90 0 c73 0 90 3 90 15 0 12 -18 15 -98 15 -54 0 -102 -3 -105 -7z"/>
<path d="M2027 1363 c-12 -12 -31 -16 -66 -14 -42 2 -54 -2 -83 -27 -29 -27
-33 -36 -33 -80 0 -35 6 -56 20 -72 16 -17 17 -24 7 -40 -18 -29 -15 -35 8
-15 15 14 34 18 73 16 47 -2 55 1 82 29 25 26 30 40 30 80 0 34 -6 54 -20 70
-16 18 -17 24 -6 42 16 26 10 32 -12 11z m-42 -44 c4 -6 -14 -42 -40 -81 -47
-71 -48 -71 -61 -47 -35 64 3 136 73 138 12 1 25 -4 28 -10z m49 -51 c20 -57
-21 -118 -79 -118 -19 0 -35 5 -35 10 0 20 83 141 94 137 6 -2 15 -15 20 -29z"/>
<path d="M1370 1250 c0 -55 0 -103 -1 -107 0 -4 4 -9 9 -11 5 -1 12 32 15 74
6 81 20 108 63 118 13 4 24 11 24 16 0 15 -34 12 -56 -5 -25 -19 -34 -19 -34
0 0 8 -4 15 -10 15 -6 0 -10 -40 -10 -100z"/>
<path d="M1540 1240 c0 -61 4 -110 9 -110 5 0 11 42 13 94 3 103 1 126 -13
126 -5 0 -9 -49 -9 -110z"/>
<path d="M1652 1334 c-24 -17 -30 -65 -9 -82 6 -5 38 -17 70 -26 49 -14 57
-20 57 -40 0 -13 -7 -27 -16 -30 -25 -9 -73 -7 -96 5 -13 7 -23 8 -30 1 -30
-30 104 -46 147 -18 39 25 34 69 -9 90 -19 9 -42 16 -51 16 -27 0 -55 19 -55
38 0 39 48 54 104 32 20 -7 26 -6 26 4 0 8 -7 17 -16 20 -30 11 -100 6 -122
-10z"/>
<path d="M2140 1250 c0 -55 0 -103 0 -107 0 -5 5 -8 10 -8 6 0 12 31 14 73 3
78 18 105 62 116 13 4 24 11 24 16 0 15 -34 12 -56 -5 -25 -19 -34 -19 -34 0
0 8 -4 15 -10 15 -6 0 -10 -40 -10 -100z"/>
</g>
</svg>
